{"title":"Love Child S03E10 1080P WEB-DL AAC2 0 H 264","uid":15469759,"size":1977905036,"categoryP":"video","categoryS":"hd___tv_shows","magnet":"?xt=urn:btih:3416591d93bc144739dbcfb7b2e41301725ea343&amp;dn=Love+Child+S03E10+1080P+WEB-DL+AAC2+0+H+264&amp;tr=udp%3A%2F%2Ftracker.leechers-paradise.org%3A6969&amp;tr=udp%3A%2F%2Fzer0day.ch%3A1337&amp;tr=udp%3A%2F%2Fopen.demonii.com%3A1337&amp;tr=udp%3A%2F%2Ftracker.coppersurfer.tk%3A6969&amp;tr=udp%3A%2F%2Fexodus.desync.com%3A6969","seeders":5,"leechers":3,"uploader":"jmanwf","files":1,"time":1470131525,"description":"After a wild bucks party, wedding bells chime for Martha (Miranda Tapsell) and Bowditch (Andrew Ryan). \r\n\r\n\r\n\r\nVideo\r\nID                                       : 2\r\nFormat                                   : AVC\r\nFormat/Info                              : Advanced Video Codec\r\nFormat profile                           :   \r\nFormat settings, CABAC                   : Yes\r\nFormat settings, ReFrames                : 4 frames\r\nCodec ID                                 : avc1\r\nCodec ID/Info                            : Advanced Video Coding\r\nDuration                                 : 50mn 43s\r\nBit rate                                 : 5 068 Kbps\r\nWidth                                    : 1 912 pixels\r\nHeight                                   : 1 072 pixels\r\nDisplay aspect ratio                     : 16:9\r\nFrame rate mode                          : Constant\r\nFrame rate                               : 25.000 fps\r\nColor space                              : YUV\r\nChroma subsampling                       : 4:2:0\r\nBit depth                                : 8 bits\r\nScan type                                : Progressive\r\nBits/(Pixel*Frame)                       : 0.099\r\nStream size                              : 1.80 GiB (97%)\r\nLanguage                                 : English\r\nEncoded date                             : UTC 2016-08-02 06:37:09\r\nTagged date                              : UTC 2016-08-02 06:39:25\r\nColor range                              : Limited\r\nColor primaries                          : BT.709\r\nTransfer characteristics                 : BT.709\r\nMatrix coefficients                      : BT.709\r\n\r\nAudio\r\nID                                       : 1\r\nFormat                                   : AAC\r\nFormat/Info                              : Advanced Audio Codec\r\nFormat profile                           : LC\r\nCodec ID                                 : 40\r\nDuration                                 : 50mn 43s\r\nDuration_LastFrame                       : -3ms\r\nBit rate mode                            : Variable\r\nBit rate                                 : 127 Kbps\r\nMaximum bit rate                         : 173 Kbps\r\nChannel(s)                               : 2 channels\r\nChannel positions                        : Front: L R\r\nSampling rate                            : 48.0 KHz\r\nFrame rate                               : 46.875 fps (1024 spf)\r\nCompression mode                         : Lossy\r\nStream size                              : 46.0 MiB (2%)\r\nLanguage                                 : English\r\nDefault                                  : Yes\r\nAlternate group                          : 1\r\nEncoded date                             : UTC 2016-08-02 06:33:20\r\nTagged date                              : UTC 2016-08-02 06:37:09","torrent":{"xt":"urn:btih:3416591d93bc144739dbcfb7b2e41301725ea343","amp;dn":"Love+Child+S03E10+1080P+WEB-DL+AAC2+0+H+264","amp;tr":["udp%3A%2F%2Ftracker.leechers-paradise.org%3A6969","udp%3A%2F%2Fzer0day.ch%3A1337","udp%3A%2F%2Fopen.demonii.com%3A1337","udp%3A%2F%2Ftracker.coppersurfer.tk%3A6969","udp%3A%2F%2Fexodus.desync.com%3A6969"],"infoHash":"3416591d93bc144739dbcfb7b2e41301725ea343","infoHashBuffer":{"type":"Buffer","data":[52,22,89,29,147,188,20,71,57,219,207,183,178,228,19,1,114,94,163,67]},"announce":[],"urlList":[]}}